<mxfile host="app.diagrams.net" modified="2023-10-31T04:20:42.143Z" agent="Mozilla/5.0 (Windows NT 10.0; Win64; x64) AppleWebKit/537.36 (KHTML, like Gecko) Chrome/118.0.0.0 Safari/537.36 Edg/118.0.2088.76" etag="tHi-_Azdi0oilf35jV2I" version="22.0.8" type="device">
  <diagram name="PÃ¡gina-1" id="0bstYMxvY7cH6XRRM2jb">
    <mxGraphModel dx="1426" dy="751" grid="1" gridSize="10" guides="1" tooltips="1" connect="1" arrows="1" fold="1" page="1" pageScale="1" pageWidth="980" pageHeight="1390" math="0" shadow="0">
      <root>
        <mxCell id="0" />
        <mxCell id="1" parent="0" />
        <mxCell id="GZ0Fn0KtVLIehGP7e8Tm-14" value="BaseGenerficaCRUD&lt;br&gt;&amp;lt;&amp;lt;Abstract&amp;gt;&amp;gt;" style="swimlane;fontStyle=1;align=center;verticalAlign=top;childLayout=stackLayout;horizontal=1;startSize=40;horizontalStack=0;resizeParent=1;resizeParentMax=0;resizeLast=0;collapsible=1;marginBottom=0;whiteSpace=wrap;html=1;" parent="1" vertex="1">
          <mxGeometry x="410" y="20" width="190" height="170" as="geometry" />
        </mxCell>
        <mxCell id="GZ0Fn0KtVLIehGP7e8Tm-15" value="# db: TFakeDB&lt;br&gt;# dataset: ArrayList&amp;lt;TDom&amp;gt;" style="text;strokeColor=none;fillColor=none;align=left;verticalAlign=top;spacingLeft=4;spacingRight=4;overflow=hidden;rotatable=0;points=[[0,0.5],[1,0.5]];portConstraint=eastwest;whiteSpace=wrap;html=1;" parent="GZ0Fn0KtVLIehGP7e8Tm-14" vertex="1">
          <mxGeometry y="40" width="190" height="40" as="geometry" />
        </mxCell>
        <mxCell id="GZ0Fn0KtVLIehGP7e8Tm-16" value="" style="line;strokeWidth=1;fillColor=none;align=left;verticalAlign=middle;spacingTop=-1;spacingLeft=3;spacingRight=3;rotatable=0;labelPosition=right;points=[];portConstraint=eastwest;strokeColor=inherit;" parent="GZ0Fn0KtVLIehGP7e8Tm-14" vertex="1">
          <mxGeometry y="80" width="190" height="10" as="geometry" />
        </mxCell>
        <mxCell id="GZ0Fn0KtVLIehGP7e8Tm-17" value="+ Create(TDom): TDom&lt;br&gt;+ Read(int): TDom&lt;br&gt;+ ReadAll(): TDom&lt;br&gt;+ Update(TDom): TDom&lt;br&gt;+ Delete(int): TDom" style="text;strokeColor=none;fillColor=none;align=left;verticalAlign=top;spacingLeft=4;spacingRight=4;overflow=hidden;rotatable=0;points=[[0,0.5],[1,0.5]];portConstraint=eastwest;whiteSpace=wrap;html=1;" parent="GZ0Fn0KtVLIehGP7e8Tm-14" vertex="1">
          <mxGeometry y="90" width="190" height="80" as="geometry" />
        </mxCell>
        <mxCell id="pg8Dh7L_2Ul8pIAhOK-O-46" style="edgeStyle=orthogonalEdgeStyle;rounded=0;orthogonalLoop=1;jettySize=auto;html=1;" edge="1" parent="1" source="pg8Dh7L_2Ul8pIAhOK-O-1" target="GZ0Fn0KtVLIehGP7e8Tm-17">
          <mxGeometry relative="1" as="geometry">
            <Array as="points">
              <mxPoint x="505" y="290" />
            </Array>
          </mxGeometry>
        </mxCell>
        <mxCell id="pg8Dh7L_2Ul8pIAhOK-O-1" value="AlunoRepositorio" style="swimlane;fontStyle=1;align=center;verticalAlign=top;childLayout=stackLayout;horizontal=1;startSize=26;horizontalStack=0;resizeParent=1;resizeParentMax=0;resizeLast=0;collapsible=1;marginBottom=0;whiteSpace=wrap;html=1;" vertex="1" parent="1">
          <mxGeometry x="240" y="240" width="160" height="86" as="geometry" />
        </mxCell>
        <mxCell id="pg8Dh7L_2Ul8pIAhOK-O-2" value="+ field: type" style="text;strokeColor=none;fillColor=none;align=left;verticalAlign=top;spacingLeft=4;spacingRight=4;overflow=hidden;rotatable=0;points=[[0,0.5],[1,0.5]];portConstraint=eastwest;whiteSpace=wrap;html=1;" vertex="1" parent="pg8Dh7L_2Ul8pIAhOK-O-1">
          <mxGeometry y="26" width="160" height="26" as="geometry" />
        </mxCell>
        <mxCell id="pg8Dh7L_2Ul8pIAhOK-O-3" value="" style="line;strokeWidth=1;fillColor=none;align=left;verticalAlign=middle;spacingTop=-1;spacingLeft=3;spacingRight=3;rotatable=0;labelPosition=right;points=[];portConstraint=eastwest;strokeColor=inherit;" vertex="1" parent="pg8Dh7L_2Ul8pIAhOK-O-1">
          <mxGeometry y="52" width="160" height="8" as="geometry" />
        </mxCell>
        <mxCell id="pg8Dh7L_2Ul8pIAhOK-O-4" value="+ AlunoRepositorio()" style="text;strokeColor=none;fillColor=none;align=left;verticalAlign=top;spacingLeft=4;spacingRight=4;overflow=hidden;rotatable=0;points=[[0,0.5],[1,0.5]];portConstraint=eastwest;whiteSpace=wrap;html=1;" vertex="1" parent="pg8Dh7L_2Ul8pIAhOK-O-1">
          <mxGeometry y="60" width="160" height="26" as="geometry" />
        </mxCell>
        <mxCell id="pg8Dh7L_2Ul8pIAhOK-O-5" value="ProfessorRepositorio" style="swimlane;fontStyle=1;align=center;verticalAlign=top;childLayout=stackLayout;horizontal=1;startSize=26;horizontalStack=0;resizeParent=1;resizeParentMax=0;resizeLast=0;collapsible=1;marginBottom=0;whiteSpace=wrap;html=1;" vertex="1" parent="1">
          <mxGeometry x="240" y="359" width="160" height="86" as="geometry" />
        </mxCell>
        <mxCell id="pg8Dh7L_2Ul8pIAhOK-O-6" value="+ field: type" style="text;strokeColor=none;fillColor=none;align=left;verticalAlign=top;spacingLeft=4;spacingRight=4;overflow=hidden;rotatable=0;points=[[0,0.5],[1,0.5]];portConstraint=eastwest;whiteSpace=wrap;html=1;" vertex="1" parent="pg8Dh7L_2Ul8pIAhOK-O-5">
          <mxGeometry y="26" width="160" height="26" as="geometry" />
        </mxCell>
        <mxCell id="pg8Dh7L_2Ul8pIAhOK-O-7" value="" style="line;strokeWidth=1;fillColor=none;align=left;verticalAlign=middle;spacingTop=-1;spacingLeft=3;spacingRight=3;rotatable=0;labelPosition=right;points=[];portConstraint=eastwest;strokeColor=inherit;" vertex="1" parent="pg8Dh7L_2Ul8pIAhOK-O-5">
          <mxGeometry y="52" width="160" height="8" as="geometry" />
        </mxCell>
        <mxCell id="pg8Dh7L_2Ul8pIAhOK-O-8" value="+ ProfessorRepositorio()" style="text;strokeColor=none;fillColor=none;align=left;verticalAlign=top;spacingLeft=4;spacingRight=4;overflow=hidden;rotatable=0;points=[[0,0.5],[1,0.5]];portConstraint=eastwest;whiteSpace=wrap;html=1;" vertex="1" parent="pg8Dh7L_2Ul8pIAhOK-O-5">
          <mxGeometry y="60" width="160" height="26" as="geometry" />
        </mxCell>
        <mxCell id="pg8Dh7L_2Ul8pIAhOK-O-9" value="DisciplinaRepositorio" style="swimlane;fontStyle=1;align=center;verticalAlign=top;childLayout=stackLayout;horizontal=1;startSize=26;horizontalStack=0;resizeParent=1;resizeParentMax=0;resizeLast=0;collapsible=1;marginBottom=0;whiteSpace=wrap;html=1;" vertex="1" parent="1">
          <mxGeometry x="600" y="240" width="160" height="86" as="geometry" />
        </mxCell>
        <mxCell id="pg8Dh7L_2Ul8pIAhOK-O-10" value="+ field: type" style="text;strokeColor=none;fillColor=none;align=left;verticalAlign=top;spacingLeft=4;spacingRight=4;overflow=hidden;rotatable=0;points=[[0,0.5],[1,0.5]];portConstraint=eastwest;whiteSpace=wrap;html=1;" vertex="1" parent="pg8Dh7L_2Ul8pIAhOK-O-9">
          <mxGeometry y="26" width="160" height="26" as="geometry" />
        </mxCell>
        <mxCell id="pg8Dh7L_2Ul8pIAhOK-O-11" value="" style="line;strokeWidth=1;fillColor=none;align=left;verticalAlign=middle;spacingTop=-1;spacingLeft=3;spacingRight=3;rotatable=0;labelPosition=right;points=[];portConstraint=eastwest;strokeColor=inherit;" vertex="1" parent="pg8Dh7L_2Ul8pIAhOK-O-9">
          <mxGeometry y="52" width="160" height="8" as="geometry" />
        </mxCell>
        <mxCell id="pg8Dh7L_2Ul8pIAhOK-O-12" value="+ DisciplinaRepositorio()" style="text;strokeColor=none;fillColor=none;align=left;verticalAlign=top;spacingLeft=4;spacingRight=4;overflow=hidden;rotatable=0;points=[[0,0.5],[1,0.5]];portConstraint=eastwest;whiteSpace=wrap;html=1;" vertex="1" parent="pg8Dh7L_2Ul8pIAhOK-O-9">
          <mxGeometry y="60" width="160" height="26" as="geometry" />
        </mxCell>
        <mxCell id="pg8Dh7L_2Ul8pIAhOK-O-44" style="edgeStyle=orthogonalEdgeStyle;rounded=0;orthogonalLoop=1;jettySize=auto;html=1;" edge="1" parent="1" source="pg8Dh7L_2Ul8pIAhOK-O-17" target="GZ0Fn0KtVLIehGP7e8Tm-17">
          <mxGeometry relative="1" as="geometry">
            <Array as="points">
              <mxPoint x="505" y="410" />
            </Array>
          </mxGeometry>
        </mxCell>
        <mxCell id="pg8Dh7L_2Ul8pIAhOK-O-17" value="NotasTrabalhoRepositorio" style="swimlane;fontStyle=1;align=center;verticalAlign=top;childLayout=stackLayout;horizontal=1;startSize=26;horizontalStack=0;resizeParent=1;resizeParentMax=0;resizeLast=0;collapsible=1;marginBottom=0;whiteSpace=wrap;html=1;" vertex="1" parent="1">
          <mxGeometry x="595" y="370" width="170" height="86" as="geometry" />
        </mxCell>
        <mxCell id="pg8Dh7L_2Ul8pIAhOK-O-18" value="+ field: type" style="text;strokeColor=none;fillColor=none;align=left;verticalAlign=top;spacingLeft=4;spacingRight=4;overflow=hidden;rotatable=0;points=[[0,0.5],[1,0.5]];portConstraint=eastwest;whiteSpace=wrap;html=1;" vertex="1" parent="pg8Dh7L_2Ul8pIAhOK-O-17">
          <mxGeometry y="26" width="170" height="26" as="geometry" />
        </mxCell>
        <mxCell id="pg8Dh7L_2Ul8pIAhOK-O-19" value="" style="line;strokeWidth=1;fillColor=none;align=left;verticalAlign=middle;spacingTop=-1;spacingLeft=3;spacingRight=3;rotatable=0;labelPosition=right;points=[];portConstraint=eastwest;strokeColor=inherit;" vertex="1" parent="pg8Dh7L_2Ul8pIAhOK-O-17">
          <mxGeometry y="52" width="170" height="8" as="geometry" />
        </mxCell>
        <mxCell id="pg8Dh7L_2Ul8pIAhOK-O-20" value="+ NotasTrabalhoRepositorio()" style="text;strokeColor=none;fillColor=none;align=left;verticalAlign=top;spacingLeft=4;spacingRight=4;overflow=hidden;rotatable=0;points=[[0,0.5],[1,0.5]];portConstraint=eastwest;whiteSpace=wrap;html=1;" vertex="1" parent="pg8Dh7L_2Ul8pIAhOK-O-17">
          <mxGeometry y="60" width="170" height="26" as="geometry" />
        </mxCell>
        <mxCell id="pg8Dh7L_2Ul8pIAhOK-O-47" style="edgeStyle=orthogonalEdgeStyle;rounded=0;orthogonalLoop=1;jettySize=auto;html=1;" edge="1" parent="1" source="pg8Dh7L_2Ul8pIAhOK-O-21" target="GZ0Fn0KtVLIehGP7e8Tm-17">
          <mxGeometry relative="1" as="geometry">
            <Array as="points">
              <mxPoint x="505" y="500" />
              <mxPoint x="505" y="500" />
            </Array>
          </mxGeometry>
        </mxCell>
        <mxCell id="pg8Dh7L_2Ul8pIAhOK-O-21" value="RendimentoEscolarRepositorio" style="swimlane;fontStyle=1;align=center;verticalAlign=top;childLayout=stackLayout;horizontal=1;startSize=26;horizontalStack=0;resizeParent=1;resizeParentMax=0;resizeLast=0;collapsible=1;marginBottom=0;whiteSpace=wrap;html=1;" vertex="1" parent="1">
          <mxGeometry x="410" y="600" width="200" height="86" as="geometry" />
        </mxCell>
        <mxCell id="pg8Dh7L_2Ul8pIAhOK-O-22" value="+ field: type" style="text;strokeColor=none;fillColor=none;align=left;verticalAlign=top;spacingLeft=4;spacingRight=4;overflow=hidden;rotatable=0;points=[[0,0.5],[1,0.5]];portConstraint=eastwest;whiteSpace=wrap;html=1;" vertex="1" parent="pg8Dh7L_2Ul8pIAhOK-O-21">
          <mxGeometry y="26" width="200" height="26" as="geometry" />
        </mxCell>
        <mxCell id="pg8Dh7L_2Ul8pIAhOK-O-23" value="" style="line;strokeWidth=1;fillColor=none;align=left;verticalAlign=middle;spacingTop=-1;spacingLeft=3;spacingRight=3;rotatable=0;labelPosition=right;points=[];portConstraint=eastwest;strokeColor=inherit;" vertex="1" parent="pg8Dh7L_2Ul8pIAhOK-O-21">
          <mxGeometry y="52" width="200" height="8" as="geometry" />
        </mxCell>
        <mxCell id="pg8Dh7L_2Ul8pIAhOK-O-24" value="+ RendimentoEscolarRepositorio()" style="text;strokeColor=none;fillColor=none;align=left;verticalAlign=top;spacingLeft=4;spacingRight=4;overflow=hidden;rotatable=0;points=[[0,0.5],[1,0.5]];portConstraint=eastwest;whiteSpace=wrap;html=1;" vertex="1" parent="pg8Dh7L_2Ul8pIAhOK-O-21">
          <mxGeometry y="60" width="200" height="26" as="geometry" />
        </mxCell>
        <mxCell id="pg8Dh7L_2Ul8pIAhOK-O-25" value="" style="text;strokeColor=none;fillColor=none;align=left;verticalAlign=middle;spacingTop=-1;spacingLeft=4;spacingRight=4;rotatable=0;labelPosition=right;points=[];portConstraint=eastwest;" vertex="1" parent="1">
          <mxGeometry x="480" y="419" width="20" height="14" as="geometry" />
        </mxCell>
        <mxCell id="pg8Dh7L_2Ul8pIAhOK-O-42" style="edgeStyle=orthogonalEdgeStyle;rounded=0;orthogonalLoop=1;jettySize=auto;html=1;" edge="1" parent="1" source="pg8Dh7L_2Ul8pIAhOK-O-27" target="GZ0Fn0KtVLIehGP7e8Tm-17">
          <mxGeometry relative="1" as="geometry">
            <Array as="points">
              <mxPoint x="505" y="523" />
            </Array>
          </mxGeometry>
        </mxCell>
        <mxCell id="pg8Dh7L_2Ul8pIAhOK-O-27" value="TrabalhoRepositorio" style="swimlane;fontStyle=1;align=center;verticalAlign=top;childLayout=stackLayout;horizontal=1;startSize=26;horizontalStack=0;resizeParent=1;resizeParentMax=0;resizeLast=0;collapsible=1;marginBottom=0;whiteSpace=wrap;html=1;" vertex="1" parent="1">
          <mxGeometry x="240" y="480" width="160" height="86" as="geometry" />
        </mxCell>
        <mxCell id="pg8Dh7L_2Ul8pIAhOK-O-28" value="+ field: type" style="text;strokeColor=none;fillColor=none;align=left;verticalAlign=top;spacingLeft=4;spacingRight=4;overflow=hidden;rotatable=0;points=[[0,0.5],[1,0.5]];portConstraint=eastwest;whiteSpace=wrap;html=1;" vertex="1" parent="pg8Dh7L_2Ul8pIAhOK-O-27">
          <mxGeometry y="26" width="160" height="26" as="geometry" />
        </mxCell>
        <mxCell id="pg8Dh7L_2Ul8pIAhOK-O-29" value="" style="line;strokeWidth=1;fillColor=none;align=left;verticalAlign=middle;spacingTop=-1;spacingLeft=3;spacingRight=3;rotatable=0;labelPosition=right;points=[];portConstraint=eastwest;strokeColor=inherit;" vertex="1" parent="pg8Dh7L_2Ul8pIAhOK-O-27">
          <mxGeometry y="52" width="160" height="8" as="geometry" />
        </mxCell>
        <mxCell id="pg8Dh7L_2Ul8pIAhOK-O-30" value="+ TrabalhoRepositorio()" style="text;strokeColor=none;fillColor=none;align=left;verticalAlign=top;spacingLeft=4;spacingRight=4;overflow=hidden;rotatable=0;points=[[0,0.5],[1,0.5]];portConstraint=eastwest;whiteSpace=wrap;html=1;" vertex="1" parent="pg8Dh7L_2Ul8pIAhOK-O-27">
          <mxGeometry y="60" width="160" height="26" as="geometry" />
        </mxCell>
        <mxCell id="pg8Dh7L_2Ul8pIAhOK-O-41" style="edgeStyle=orthogonalEdgeStyle;rounded=0;orthogonalLoop=1;jettySize=auto;html=1;" edge="1" parent="1" source="pg8Dh7L_2Ul8pIAhOK-O-31" target="GZ0Fn0KtVLIehGP7e8Tm-17">
          <mxGeometry relative="1" as="geometry">
            <Array as="points">
              <mxPoint x="505" y="523" />
            </Array>
          </mxGeometry>
        </mxCell>
        <mxCell id="pg8Dh7L_2Ul8pIAhOK-O-31" value="TurmaRepositorio" style="swimlane;fontStyle=1;align=center;verticalAlign=top;childLayout=stackLayout;horizontal=1;startSize=26;horizontalStack=0;resizeParent=1;resizeParentMax=0;resizeLast=0;collapsible=1;marginBottom=0;whiteSpace=wrap;html=1;" vertex="1" parent="1">
          <mxGeometry x="595" y="480" width="160" height="86" as="geometry" />
        </mxCell>
        <mxCell id="pg8Dh7L_2Ul8pIAhOK-O-32" value="+ field: type" style="text;strokeColor=none;fillColor=none;align=left;verticalAlign=top;spacingLeft=4;spacingRight=4;overflow=hidden;rotatable=0;points=[[0,0.5],[1,0.5]];portConstraint=eastwest;whiteSpace=wrap;html=1;" vertex="1" parent="pg8Dh7L_2Ul8pIAhOK-O-31">
          <mxGeometry y="26" width="160" height="26" as="geometry" />
        </mxCell>
        <mxCell id="pg8Dh7L_2Ul8pIAhOK-O-33" value="" style="line;strokeWidth=1;fillColor=none;align=left;verticalAlign=middle;spacingTop=-1;spacingLeft=3;spacingRight=3;rotatable=0;labelPosition=right;points=[];portConstraint=eastwest;strokeColor=inherit;" vertex="1" parent="pg8Dh7L_2Ul8pIAhOK-O-31">
          <mxGeometry y="52" width="160" height="8" as="geometry" />
        </mxCell>
        <mxCell id="pg8Dh7L_2Ul8pIAhOK-O-34" value="+ TurmaRepositorio()" style="text;strokeColor=none;fillColor=none;align=left;verticalAlign=top;spacingLeft=4;spacingRight=4;overflow=hidden;rotatable=0;points=[[0,0.5],[1,0.5]];portConstraint=eastwest;whiteSpace=wrap;html=1;" vertex="1" parent="pg8Dh7L_2Ul8pIAhOK-O-31">
          <mxGeometry y="60" width="160" height="26" as="geometry" />
        </mxCell>
        <mxCell id="pg8Dh7L_2Ul8pIAhOK-O-37" style="edgeStyle=orthogonalEdgeStyle;rounded=0;orthogonalLoop=1;jettySize=auto;html=1;" edge="1" parent="1" source="pg8Dh7L_2Ul8pIAhOK-O-10" target="GZ0Fn0KtVLIehGP7e8Tm-17">
          <mxGeometry relative="1" as="geometry">
            <Array as="points">
              <mxPoint x="505" y="290" />
            </Array>
          </mxGeometry>
        </mxCell>
        <mxCell id="pg8Dh7L_2Ul8pIAhOK-O-38" style="edgeStyle=orthogonalEdgeStyle;rounded=0;orthogonalLoop=1;jettySize=auto;html=1;" edge="1" parent="1" source="pg8Dh7L_2Ul8pIAhOK-O-6" target="GZ0Fn0KtVLIehGP7e8Tm-17">
          <mxGeometry relative="1" as="geometry">
            <Array as="points">
              <mxPoint x="505" y="410" />
            </Array>
          </mxGeometry>
        </mxCell>
      </root>
    </mxGraphModel>
  </diagram>
</mxfile>
